<svg xmlns="http://www.w3.org/2000/svg" width="20" height="38" viewBox="0 0 20 38"><g transform="translate(0 38) rotate(-90)"><path d="M36.576,19.745,18.988,2.009,1.4,19.745a.821.821,0,0,1-1.168-.02.838.838,0,0,1,0-1.157L18.4.244a.821.821,0,0,1,1.168,0L37.746,18.567a.838.838,0,0,1,.02,1.178.821.821,0,0,1-1.168.02l-.02-.02Z" transform="translate(0.002 0.001)" fill="#ffc107"/><path d="M18.99,0a.822.822,0,0,0-.585.243L.232,18.566a.838.838,0,0,0,.02,1.178.821.821,0,0,0,1.148,0L18.99,2.011,36.578,19.746a.821.821,0,0,0,1.168.02.838.838,0,0,0,.02-1.178l-.02-.02L19.573.245A.823.823,0,0,0,18.99,0Z" transform="translate(0 0)"/></g></svg>