<svg xmlns="http://www.w3.org/2000/svg" width="92" height="140.89" viewBox="0 0 92 140.89"><g transform="translate(-829 -293.805)" opacity="0.2"><path d="M876.817,434.7v-.98a46.565,46.565,0,0,0,22.267-7.082c8.991-5.637,20.935-16.156,20.935-42.222,0-28.678-6.689-51.389-21.069-71.467a49.855,49.855,0,0,0-24.043-18.2l.268-.939a50.929,50.929,0,0,1,24.57,18.581C914.2,332.64,921,355.537,921,384.421c0,20.2-6.8,33.881-21.4,43.048A47.6,47.6,0,0,1,876.817,434.7Z" fill="#b7935f"/><path d="M876.641,434.7v-.98a38.773,38.773,0,0,0,20-7.061c8.083-5.647,18.83-16.167,18.83-42.243,0-28.688-6.019-51.4-18.964-71.488-9.084-14.1-21.482-18.148-21.606-18.179l.289-.929c.134,0,12.852,4.129,22.133,18.582,13.048,20.254,19.129,43.13,19.129,72.014,0,20.192-6.122,33.87-19.253,43.037A39.818,39.818,0,0,1,876.641,434.7Z" fill="#b7935f"/><path d="M876.456,434.7v-.98c.092,0,8.867-.093,17.724-7.051,7.227-5.637,16.745-16.166,16.745-42.253,0-28.7-5.358-51.42-16.868-71.508-8.073-14.092-19.067-18.128-19.181-18.169l.33-.919c.114,0,11.439,4.181,19.7,18.582C906.5,332.64,911.9,355.517,911.9,384.391c0,20.181-5.44,33.849-17.116,43.026C885.643,434.613,876.827,434.7,876.456,434.7Z" fill="#b7935f"/><path d="M876.28,434.7v-.98c.083,0,7.722-.093,15.485-7.03,6.287-5.647,14.648-16.167,14.648-42.274,0-28.7-4.7-51.43-14.762-71.529-7.092-14.081-16.692-18.117-16.826-18.159l.371-.9c.4.166,10.024,4.13,17.26,18.582,10.138,20.233,14.856,43.1,14.856,71.963,0,20.171-4.759,33.829-14.969,43.006C884.353,434.613,876.61,434.7,876.28,434.7Z" fill="#b7935f"/><path d="M876.1,434.7v-.98c.062,0,6.565-.1,13.162-7,5.388-5.646,12.553-16.176,12.553-42.324,0-28.709-4.026-51.451-12.657-71.561-6.08-14.08-14.246-18.076-14.338-18.117l.412-.877c.351.165,8.62,4.191,14.814,18.581,8.682,20.234,12.729,43.089,12.729,71.943,0,20.15-4.068,33.808-12.822,42.975C883.083,434.613,876.383,434.7,876.1,434.7Z" fill="#b7935f"/><path d="M875.929,434.7v-.98c.052,0,5.42-.1,10.87-6.969,4.491-5.646,10.468-16.186,10.468-42.325,0-28.729-3.355-51.471-10.54-71.58-5.048-14.112-11.851-18.107-11.9-18.138l.474-.857c.3.165,7.227,4.212,12.388,18.654,7.226,20.223,10.592,43.068,10.592,71.911,0,20.141-3.386,33.778-10.674,42.945C881.793,434.613,876.167,434.7,875.929,434.7Z" fill="#b7935f"/><path d="M875.754,434.7v-.98s4.273-.124,8.6-6.927c5.708-8.992,8.372-22.453,8.372-42.325,0-28.74-2.684-51.492-8.434-71.612-4.016-14.05-9.467-18.086-9.518-18.128l.557-.794c.238.165,5.771,4.211,9.9,18.654,5.781,20.212,8.476,43.047,8.476,71.88,0,20.12-2.715,33.746-8.538,42.9C880.523,434.613,875.939,434.7,875.754,434.7Z" fill="#b7935f"/><path d="M875.578,434.7v-.98s3.1-.166,6.308-6.876c4.294-9,6.286-22.484,6.286-42.428,0-28.75-2-51.512-6.317-71.643-3.015-14.06-7.092-18.1-7.134-18.137l.671-.713c.176.165,4.326,4.222,7.412,18.644,4.326,20.2,6.349,43.037,6.349,71.849,0,20.1-2.065,33.716-6.39,42.852C879.253,434.613,875.723,434.7,875.578,434.7Z" fill="#b7935f"/><path d="M875.392,434.7v-.97s1.972-.289,4.047-6.824c2.859-9.022,4.191-22.525,4.191-42.49,0-28.76-1.332-51.533-4.212-71.684-2-14.07-4.728-18.138-4.759-18.169l.806-.567c.113.165,2.869,4.211,4.924,18.581,2.88,20.192,4.222,43.017,4.222,71.818,0,20.069-1.352,33.664-4.243,42.79C878.035,434.489,875.661,434.7,875.392,434.7Z" fill="#b7935f"/><path d="M875.217,434.7v-.98a.256.256,0,0,0-.155,0s.95-.692,1.91-6.783c1.424-9.043,2.064-22.566,2.064-42.562,0-28.771-.671-51.554-2.064-71.715-1.033-14.143-2.364-18.221-2.375-18.262l.919-.32c.052.165,1.414,4.129,2.436,18.51,1.425,20.181,2.065,43,2.065,71.787,0,20.047-.671,33.622-2.065,42.717C877.385,430.576,876.476,434.7,875.217,434.7Z" fill="#b7935f"/><path d="M875.041,434.7c-.485,0-.485-.186-.495-1.383V294.269h.97v139.91h-.485Z" fill="#b7935f"/><path d="M874.825,434.7c-1.281,0-2.21-4.129-2.757-7.567-1.466-9.094-2.147-22.711-2.147-42.717,0-28.791.681-51.616,2.137-71.787,1.032-14.339,2.426-18.344,2.488-18.51l.919.32s-1.4,4.13-2.437,18.262c-1.455,20.161-2.137,42.944-2.137,71.715,0,20,.682,33.519,2.137,42.563.981,6.1,1.91,6.751,1.951,6.782a.253.253,0,0,0-.154,0Z" fill="#b7935f"/><path d="M874.69,434.7c-.268,0-2.663-.217-5-7.494-2.922-9.126-4.284-22.711-4.284-42.79,0-28.812,1.352-51.616,4.263-71.818,2.065-14.391,4.852-18.437,4.976-18.582l.795.568s-2.777,4.129-4.811,18.169c-2.9,20.151-4.253,42.923-4.253,71.684,0,19.965,1.353,33.467,4.243,42.49,2.065,6.545,4.067,6.813,4.129,6.824Z" fill="#b7935f"/><path d="M874.515,434.7c-.155,0-3.706-.082-7.226-7.432-4.377-9.136-6.421-22.711-6.421-42.852,0-28.822,2.064-51.616,6.39-71.849,3.1-14.452,7.288-18.479,7.463-18.644l.671.713s-4.129,4.077-7.226,18.137c-4.346,20.131-6.369,42.893-6.369,71.643,0,19.944,2.064,33.427,6.328,42.428,3.221,6.71,6.328,6.876,6.359,6.876Z" fill="#b7935f"/><path d="M874.329,434.7c-.186,0-4.79-.082-9.446-7.381-5.853-9.156-8.578-22.783-8.578-42.9,0-28.832,2.7-51.667,8.516-71.88,4.13-14.452,9.7-18.489,9.942-18.654l.557.795s-5.523,4.078-9.559,18.127c-5.792,20.12-8.476,42.872-8.476,71.612,0,19.924,2.674,33.385,8.414,42.325,4.346,6.8,8.6,6.927,8.64,6.927Z" fill="#b7935f"/><path d="M874.154,434.7c-.238,0-5.885-.082-11.676-7.339-7.319-9.167-10.726-22.8-10.726-42.945,0-28.843,3.386-51.688,10.643-71.911,5.162-14.452,12.12-18.489,12.388-18.654l.475.857c-.062,0-6.916,4.067-11.964,18.127-7.227,20.11-10.582,42.852-10.582,71.581,0,26.149,6,36.689,10.509,42.325,5.472,6.865,10.86,6.968,10.912,6.968Z" fill="#b7935f"/><path d="M873.978,434.7c-.279,0-6.989-.082-13.905-7.309-8.775-9.167-12.873-22.824-12.873-42.975,0-28.853,4.067-51.709,12.78-71.942,6.194-14.452,14.452-18.468,14.855-18.582l.413.878c-.083,0-8.321,4.077-14.38,18.138-8.651,20.109-12.688,42.851-12.688,71.56,0,26.128,7.227,36.657,12.6,42.325,6.617,6.9,13.141,7,13.2,7Z" fill="#b7935f"/><path d="M873.792,434.7c-.33,0-8.093-.082-16.135-7.226-10.24-9.177-15.01-22.835-15.01-43.006,0-28.9,4.728-51.73,14.9-71.963,7.226-14.452,16.9-18.458,17.311-18.582l.362.9c-.093,0-9.725,4.13-16.8,18.159-10.1,20.1-14.8,42.831-14.8,71.529,0,26.107,8.382,36.627,14.689,42.273,7.743,6.938,15.4,7.03,15.485,7.03Z" fill="#b7935f"/><path d="M873.627,434.7c-.372,0-9.208-.082-18.365-7.226-11.706-9.177-17.157-22.845-17.157-43.027,0-28.9,5.409-51.75,17.033-71.994,8.259-14.452,19.614-18.581,19.738-18.581l.33.918c-.113,0-11.138,4.13-19.221,18.169-11.542,20.089-16.91,42.81-16.91,71.509,0,26.086,9.58,36.616,16.786,42.252a31.9,31.9,0,0,0,17.766,7.051Z" fill="#b7935f"/><path d="M873.452,434.7a39.956,39.956,0,0,1-20.647-7.226c-13.079-9.188-19.273-22.866-19.273-43.058,0-28.9,6.091-51.76,19.16-72.014,9.29-14.453,22.06-18.582,22.184-18.582l.289.929c-.124,0-12.542,4.078-21.678,18.179-12.925,20.089-18.923,42.8-18.923,71.488,0,26.076,10.778,36.6,18.881,42.243a38.821,38.821,0,0,0,20.048,7.061Z" fill="#b7935f"/><path d="M873.266,434.7a47.806,47.806,0,0,1-22.835-7.226C835.813,418.3,829,404.624,829,384.421c0-28.9,6.772-51.781,21.3-72.035a51.026,51.026,0,0,1,24.61-18.581l.269.939a49.994,49.994,0,0,0-24.1,18.2c-14.452,20.078-21.121,42.789-21.121,71.467,0,26.066,11.975,36.585,20.977,42.222a46.766,46.766,0,0,0,22.318,7.082Z" fill="#b7935f"/></g></svg>