<svg xmlns="http://www.w3.org/2000/svg" width="20" height="38" viewBox="0 0 20 38"><g transform="translate(-117.272 38) rotate(-90)"><path d="M36.6,117.526,19.009,135.261,1.421,117.526a.821.821,0,0,0-1.168.02.838.838,0,0,0,0,1.157l18.173,18.323a.821.821,0,0,0,1.168,0L37.767,118.7a.838.838,0,0,0,.02-1.178.821.821,0,0,0-1.168-.02l-.02.02Z" transform="translate(-0.02 0)" fill="#ffc107"/><path d="M18.989,137.273a.822.822,0,0,1-.585-.243L.232,118.707a.838.838,0,0,1,.02-1.178.821.821,0,0,1,1.148,0l17.59,17.733,17.588-17.735a.821.821,0,0,1,1.168-.02.838.838,0,0,1,.02,1.178l-.02.02L19.573,137.028A.823.823,0,0,1,18.989,137.273Z" transform="translate(0 -0.001)"/></g></svg>