<svg xmlns="http://www.w3.org/2000/svg" width="20.004" height="20.004" viewBox="0 0 20.004 20.004"><path d="M10,1.8c2.671,0,2.987.01,4.042.058,2.711.123,3.977,1.409,4.1,4.1.048,1.054.058,1.371.058,4.042s-.01,2.987-.058,4.042c-.124,2.688-1.387,3.977-4.1,4.1-1.055.048-1.37.058-4.042.058s-2.987-.01-4.042-.058c-2.717-.124-3.977-1.416-4.1-4.1C1.812,12.989,1.8,12.673,1.8,10s.011-2.986.058-4.042c.124-2.69,1.387-3.977,4.1-4.1C7.016,1.813,7.331,1.8,10,1.8ZM10,0C7.286,0,6.946.012,5.879.06,2.246.227.228,2.242.061,5.878.012,6.946,0,7.286,0,10s.012,3.057.06,4.124c.167,3.632,2.182,5.651,5.818,5.818C6.946,19.992,7.286,20,10,20s3.057-.012,4.124-.06c3.629-.167,5.653-2.182,5.817-5.818C19.992,13.059,20,12.718,20,10s-.012-3.056-.06-4.123C19.781,2.25,17.763.228,14.127.061,13.059.012,12.718,0,10,0Zm0,4.866A5.136,5.136,0,1,0,15.138,10,5.136,5.136,0,0,0,10,4.866Zm0,8.47A3.334,3.334,0,1,1,13.336,10,3.334,3.334,0,0,1,10,13.336Zm5.339-9.873a1.2,1.2,0,1,0,1.2,1.2A1.2,1.2,0,0,0,15.341,3.463Z"/></svg>