<svg xmlns="http://www.w3.org/2000/svg" xmlns:xlink="http://www.w3.org/1999/xlink" width="100" height="18" viewBox="0 0 100 18"><defs><clipPath id="a"><path d="M0-15.724H100v-18H0Z" transform="translate(0 33.724)" fill="#fff"/></clipPath></defs><g transform="translate(0 0)" clip-path="url(#a)"><g transform="translate(6.844 4.762)"><path d="M-3.012-3.15l-.194-.058C-4.2-3.5-5.138-3.779-5.138-4.552c0-.735.693-1.229,1.724-1.229A1.857,1.857,0,0,1-1.482-4.29l.015.08,1.039-.278-.014-.069a2.851,2.851,0,0,0-2.938-2.2c-1.628,0-2.855.968-2.855,2.251,0,1.425,1.384,1.857,2.3,2.144l.018.005c.143.045.289.088.436.131,1,.293,2.032.6,2.032,1.562C-1.45.169-2.189.727-3.289.727A1.973,1.973,0,0,1-5.4-.958l-.01-.085-1.056.279.013.068A2.958,2.958,0,0,0-3.324,1.72C-1.552,1.72-.314.731-.314-.686c0-1.66-1.689-2.164-2.7-2.464" transform="translate(6.468 6.756)" fill="#fff"/></g></g><g transform="translate(15.387 4.914)"><path d="M0-.9H2.681V6.242H3.76V-.9H6.453V-1.931H0Z" transform="translate(0 1.931)" fill="#fff"/></g><g transform="translate(25.062 4.913)"><path d="M-.948-3.781H2.595v-.985H-.948V-7.094H3.463V-8.128h-5.5V.045H3.535V-.987H-.948Z" transform="translate(2.037 8.128)" fill="#fff"/></g><g transform="translate(0 0)" clip-path="url(#a)"><g transform="translate(33.433 4.921)"><path d="M-3.837-5.05c-.15.4-.312.831-.4,1.061-.08-.232-.233-.668-.392-1.063l-2.436-5.779H-8.241l3.487,8.157h1.047l3.491-8.157H-1.389Z" transform="translate(8.241 10.831)" fill="#fff"/></g></g><g transform="translate(44.425 4.913)"><path d="M-.947-3.781H2.595v-.985H-.947V-7.094H3.467V-8.128h-5.5V.045H3.535V-.987H-.947Z" transform="translate(2.036 8.128)" fill="#fff"/></g><g transform="translate(0 0)" clip-path="url(#a)"><g transform="translate(52.705 4.762)"><path d="M-3.008-3.15-3.2-3.208c-.992-.294-1.928-.571-1.928-1.345,0-.735.693-1.229,1.724-1.229A1.855,1.855,0,0,1-1.475-4.29l.013.08,1.039-.278-.013-.069a2.85,2.85,0,0,0-2.936-2.2c-1.654,0-2.855.947-2.855,2.251,0,1.423,1.381,1.856,2.3,2.142l.02.006c.143.044.289.088.434.13,1,.293,2.033.6,2.033,1.563,0,.832-.738,1.389-1.837,1.389A1.968,1.968,0,0,1-5.393-.957L-5.4-1.043-6.46-.764l.013.068A2.96,2.96,0,0,0-3.315,1.72c1.77,0,3.007-.989,3.007-2.406,0-1.664-1.69-2.165-2.7-2.464" transform="translate(6.46 6.756)" fill="#fff"/></g><g transform="translate(71.887 4.762)"><path d="M-6.117-5l-.027.053A3.089,3.089,0,0,1-8.908-3.33a3.037,3.037,0,0,1-3.117-3.163A3.011,3.011,0,0,1-8.908-9.67a3.1,3.1,0,0,1,2.63,1.4l.028.045,1.1-.275L-5.2-8.589a4.2,4.2,0,0,0-3.71-2.145,4.143,4.143,0,0,0-4.23,4.241,4.14,4.14,0,0,0,4.23,4.235A4.154,4.154,0,0,0-5.084-4.632l.037-.08Z" transform="translate(13.138 10.734)" fill="#fff"/></g><g transform="translate(92.021 12.002)"><path d="M-.5-.992a.556.556,0,0,0,.564-.563A.576.576,0,0,0-.5-2.127a.567.567,0,0,0-.571.572A.565.565,0,0,0-.5-.992" transform="translate(1.069 2.127)" fill="#fff"/></g></g><path d="M0-15.724H100v-18H0Zm0-18,1.213,1.04h97.58v15.916H1.213Z" transform="translate(0 33.724)" fill="#fff"/><g transform="translate(0 0)" clip-path="url(#a)"><g transform="translate(62.813 5.883)"><path d="M-3.956-4.158a3.379,3.379,0,0,0,.349-.761,3.331,3.331,0,0,0,.122-.969L-4.4-6.076l0,.108c0,.074,0,.1-.01.2,0,.036-.012.084-.014.1a2.391,2.391,0,0,1-.087.469c-.034.108-.084.252-.127.349l-1.5-1.531c-.1-.1-.187-.2-.245-.271A1.8,1.8,0,0,1-6.552-6.9a1.057,1.057,0,0,1-.088-.224.823.823,0,0,1-.029-.219.948.948,0,0,1,.04-.31.59.59,0,0,1,.137-.208A.607.607,0,0,1-6.278-8a.779.779,0,0,1,.546,0,1.412,1.412,0,0,1,.174.1,1.274,1.274,0,0,1,.459.686c.011.052.017.087.017.087l.854-.23c-.007-.038-.017-.078-.027-.115s-.021-.077-.035-.115c-.027-.08-.051-.137-.051-.137h0a1.737,1.737,0,0,0-1.2-1.137,1.9,1.9,0,0,0-.441-.051,1.947,1.947,0,0,0-.717.125,1.658,1.658,0,0,0-.554.341,1.412,1.412,0,0,0-.345.487,1.6,1.6,0,0,0-.122.624,1.855,1.855,0,0,0,.131.678A2.4,2.4,0,0,0-7.33-6.2a2.7,2.7,0,0,0-.336.21,2.346,2.346,0,0,0-.436.42,1.929,1.929,0,0,0-.286.515,1.635,1.635,0,0,0-.11.6,1.683,1.683,0,0,0,.17.759,1.775,1.775,0,0,0,.439.566,1.886,1.886,0,0,0,.616.349,2.09,2.09,0,0,0,.7.124,2.924,2.924,0,0,0,1.163-.231,3.309,3.309,0,0,0,.818-.51l.347.351.336.3.024-.011,1.008-.316Zm-2.529.6a1.11,1.11,0,0,1-.938-.5.994.994,0,0,1-.048-.79,1.542,1.542,0,0,1,.708-.716l1.512,1.523a2.2,2.2,0,0,1-1.235.483" transform="translate(8.497 8.918)" fill="#fff"/></g><g transform="translate(82.707 4.762)"><path d="M-3.689,0A4.144,4.144,0,0,0-7.923,4.241,4.142,4.142,0,0,0-3.689,8.477,4.146,4.146,0,0,0,.552,4.241,4.149,4.149,0,0,0-3.689,0m0,7.413a3.043,3.043,0,0,1-3.12-3.172,3.012,3.012,0,0,1,3.12-3.177A3.044,3.044,0,0,1-.57,4.241,3.042,3.042,0,0,1-3.689,7.413" transform="translate(7.923)" fill="#fff"/></g></g></svg>