<svg xmlns="http://www.w3.org/2000/svg" width="60" height="60" viewBox="0 0 60 60"><g transform="translate(-133 -2204)"><circle cx="30" cy="30" r="30" transform="translate(133 2204)" fill="#f3d2d5"/><g transform="translate(-490.753 -5859.5)"><g transform="translate(639.753 8082.5)"><path d="M650.683,8103.064l-4.711-3.853a2.045,2.045,0,0,1-.7-2.086h0a2.034,2.034,0,0,1,2.886-1.331l1.46.729v-8.406a1.867,1.867,0,0,1,1.865-1.868h0a1.866,1.866,0,0,1,1.865,1.868v5.6l2.478.416a3.733,3.733,0,0,1,3.117,3.685v5.241" transform="translate(-638.413 -8081.064)" fill="none" stroke="#000" stroke-linecap="round" stroke-linejoin="round" stroke-width="1.5"/><path d="M639.753,8086.25h6.539" transform="translate(-639.753 -8081.467)" fill="none" stroke="#000" stroke-linecap="round" stroke-linejoin="round" stroke-width="1.5"/><path d="M644.424,8082.5l-4.671,4.67,4.671,4.671" transform="translate(-639.753 -8082.499)" fill="none" stroke="#000" stroke-linecap="round" stroke-linejoin="round" stroke-width="1.5"/><path d="M654.753,8086.25h9.342" transform="translate(-636.095 -8081.467)" fill="none" stroke="#000" stroke-linecap="round" stroke-linejoin="round" stroke-width="1.5"/><path d="M658.5,8082.5l4.671,4.67-4.671,4.671" transform="translate(-635.174 -8082.499)" fill="none" stroke="#000" stroke-linecap="round" stroke-linejoin="round" stroke-width="1.5"/></g></g></g></svg>