<svg xmlns="http://www.w3.org/2000/svg" width="67" height="50" viewBox="0 0 67 50"><g transform="translate(-1374.829 -162.238)"><g transform="translate(1374.829 170.971)"><path d="M1378.782,198.146h-3.954V186.415h3.329c2.705,0,3.822,1.306,3.822,3.142a2.182,2.182,0,0,1-1.286,2.157,2.858,2.858,0,0,1,2.062,2.952C1382.756,196.765,1381.81,198.146,1378.782,198.146Zm-.662-9.574h-.908v2.385h.946c1.04,0,1.438-.322,1.457-1.211C1379.616,188.913,1379.18,188.572,1378.121,188.572Zm.4,4.238h-1.305v3.179h1.305c1.287,0,1.874-.511,1.874-1.609C1380.41,193.36,1379.767,192.81,1378.518,192.81Z" transform="translate(-1374.829 -186.226)" fill="#f3d2d5"/><path d="M1410.844,186.415v9.461h5.07v2.27h-7.492V186.415Z" transform="translate(-1395.96 -186.226)" fill="#f3d2d5"/><path d="M1439.626,195.283l-1.438,2.8h-2.648l6.149-11.769h1.154l6.149,11.769h-2.648l-1.457-2.8Zm4.314-1.892-1.722-3.425-1.683,3.425Z" transform="translate(-1413.017 -186.163)" fill="#f3d2d5"/><path d="M1485.022,198.015c-4.049,0-6.66-2.517-6.66-6.074,0-3.519,2.592-6.036,6.642-6.036a10,10,0,0,1,5.316,1.779v2.535a9.014,9.014,0,0,0-5.24-2.006c-2.536,0-4.164,1.552-4.164,3.727s1.609,3.727,4.144,3.727a9.735,9.735,0,0,0,5.279-1.968v2.536A9.63,9.63,0,0,1,1485.022,198.015Z" transform="translate(-1439.954 -185.906)" fill="#f3d2d5"/><path d="M1525.277,198.146h-2.459V186.415h2.459v4.219l4.352-4.219h3.388l-5.128,4.617,6.66,7.114h-3.122l-6.149-6.736Z" transform="translate(-1467.918 -186.226)" fill="#f3d2d5"/></g><g transform="translate(1401.643 162.238)"><path d="M1449.15,166.216h-.513v-3.5h-1.527v-.475h3.554v.475h-1.514Z" transform="translate(-1447.11 -162.238)" fill="#f3d2d5"/><path d="M1463.752,164.214H1461.1v2h-.52v-3.978h.513v1.508h2.657v-1.508h.532v3.978h-.526Z" transform="translate(-1455.583 -162.238)" fill="#f3d2d5"/><path d="M1475.65,162.238h2.329v.475h-1.816v1.033h1.2v.468h-1.2v1.527h1.969v.475h-2.483Z" transform="translate(-1465.067 -162.238)" fill="#f3d2d5"/></g><path d="M1441.927,229.463c-.171-.011-3.085-.252-9.048,1.332a46.227,46.227,0,0,0-14.207,6.579c.718-1.555,1.2-2.638,1.282-2.83.055-.065.11-.13.157-.191.749-.967,1.8-2.931,1.438-4.082a1.186,1.186,0,0,0-.815-.8c-1.693-.52-3.737,1.348-4.972,3.109a8.8,8.8,0,0,0-.9,1.682c-.543.375-3.213,2.226-6.118,4.425.658-1.433,1.091-2.414,1.163-2.579.071-.083.136-.162.193-.234.749-.967,1.8-2.931,1.437-4.082a1.182,1.182,0,0,0-.814-.8c-1.942-.6-4.29,2.219-4.964,3.1a7.542,7.542,0,0,0-1.12,2.227c-2.493,2.328-6.848,5.85-8.136,5.571a1.589,1.589,0,0,1-1.262-1.031,2.4,2.4,0,0,1-.135-.591,7.993,7.993,0,0,0,3.486-2.763c2.279-2.721,1.239-4.048,1.194-4.1l-.081-.071c-.673-.424-1.991-.075-3.677,2.171a8.015,8.015,0,0,0-1.617,4.482,22.815,22.815,0,0,1-5.8,4.425c-4.583,2.668-12.78,3.816-12.839,3.828a.34.34,0,0,0,.064.675.35.35,0,0,0,.065-.006c.06-.012,8.368-1.18,13.052-3.908a25.844,25.844,0,0,0,5.58-4.13c.022.079.047.157.075.232a2.279,2.279,0,0,0,1.759,1.458c1.73.367,6.213-3.456,8.062-5.118a2.293,2.293,0,0,0,.065.73,1.207,1.207,0,0,0,.728.841.953.953,0,0,0,.351.061,5.964,5.964,0,0,0,3.005-1.649c-.272.6-.609,1.334-1,2.163a51.807,51.807,0,0,0-6.065,5.282c-2.5,2.768-4.349,8.411-3.145,9.584a.763.763,0,0,0,.545.225,2.12,2.12,0,0,0,1.344-.736c2.107-2,5.71-9.289,7.87-13.913,2.567-1.981,5.137-3.811,6.4-4.7a2.824,2.824,0,0,0-.019,1.323,1.236,1.236,0,0,0,.707.833.893.893,0,0,0,.361.069,4.3,4.3,0,0,0,2.176-1.008c.288-.208.579-.44.861-.68-.289.633-.651,1.42-1.067,2.309a50.211,50.211,0,0,0-6.014,5.16c-2.732,2.741-4.357,8.369-3.194,9.56a.8.8,0,0,0,.586.254,2.1,2.1,0,0,0,1.34-.729c2.085-1.979,5.651-9.158,7.83-13.8,12.636-9.121,23.648-8.479,23.787-8.469a.34.34,0,1,0,.044-.679Zm-45.355,6.443c1.166-1.553,2.089-2.058,2.552-2.058a.461.461,0,0,1,.158.025c.111.227.429,1.229-1.213,3.19a8.191,8.191,0,0,1-2.967,2.481A7.7,7.7,0,0,1,1396.572,235.906Zm3.214,17.535c-.514.488-.85.609-.945.517-.694-.676.61-5.8,3.176-8.64a44.266,44.266,0,0,1,4.909-4.358C1404.761,245.512,1401.623,251.7,1399.786,253.441Zm5.68-15.069a.519.519,0,0,1-.321-.389c-.227-.819.434-2.543,1.153-3.48,1.079-1.4,2.672-2.913,3.861-2.913a1.212,1.212,0,0,1,.362.053.5.5,0,0,1,.366.355c.235.742-.5,2.388-1.327,3.46C1408.342,237.031,1406.009,238.592,1405.467,238.372Zm4.331,13.548c-.458.435-.84.628-.971.493-.667-.683.379-5.783,3.189-8.6a49.8,49.8,0,0,1,4.909-4.325C1414.751,244.043,1411.623,250.188,1409.8,251.92Zm5.69-15.064a.557.557,0,0,1-.323-.393c-.242-.861.514-2.582,1.153-3.493,1.153-1.642,2.965-3.232,4.215-2.849a.5.5,0,0,1,.366.355c.235.742-.5,2.388-1.327,3.46C1418.48,235.348,1416.03,237.09,1415.488,236.856Z" transform="translate(-0.417 -42.433)" fill="#f3d2d5"/></g></svg>