<svg id="Component_19_1" data-name="Component 19 – 1" xmlns="http://www.w3.org/2000/svg" width="133.452" height="100" viewBox="0 0 133.452 100">
  <g id="Group_6" data-name="Group 6" transform="translate(0 17.468)">
    <path id="Path_31" data-name="Path 31" d="M1382.734,209.871h-7.9V186.415h6.657c5.409,0,7.642,2.61,7.642,6.281a4.363,4.363,0,0,1-2.571,4.313c2.27.416,4.122,2.837,4.122,5.9C1390.678,207.109,1388.786,209.871,1382.734,209.871Zm-1.323-19.143h-1.817V195.5h1.891c2.08,0,2.876-.644,2.914-2.421C1384.4,191.409,1383.529,190.728,1381.411,190.728Zm.793,8.474h-2.61v6.356h2.61c2.573,0,3.746-1.022,3.746-3.217C1385.988,200.3,1384.7,199.2,1382.2,199.2Z" transform="translate(-1374.829 -186.038)"/>
    <path id="Path_32" data-name="Path 32" d="M1413.264,186.415v18.917H1423.4v4.539h-14.979V186.415Z" transform="translate(-1383.613 -186.038)"/>
    <path id="Path_33" data-name="Path 33" d="M1443.71,204.246l-2.876,5.6h-5.3l12.295-23.531h2.307l12.295,23.531h-5.294l-2.914-5.6Zm8.625-3.783-3.443-6.848-3.366,6.848Z" transform="translate(-1390.723 -186.012)"/>
    <path id="Path_34" data-name="Path 34" d="M1491.678,210.117c-8.1,0-13.316-5.032-13.316-12.143,0-7.037,5.183-12.068,13.279-12.068a19.989,19.989,0,0,1,10.629,3.556v5.069c-1.248-.907-5.257-4.01-10.477-4.01-5.071,0-8.324,3.1-8.324,7.453s3.216,7.453,8.285,7.453c5.108,0,9.269-3.1,10.555-3.935v5.071A19.253,19.253,0,0,1,1491.678,210.117Z" transform="translate(-1401.925 -185.906)"/>
    <path id="Path_35" data-name="Path 35" d="M1527.735,209.871h-4.917V186.415h4.917v8.436l8.7-8.436h6.773l-10.254,9.232,13.316,14.224h-6.242L1527.735,196.4Z" transform="translate(-1413.558 -186.038)"/>
  </g>
  <g id="Group_7" data-name="Group 7" transform="translate(53.361)">
    <path id="Path_36" data-name="Path 36" d="M1451.189,170.191h-1.025v-7h-3.053v-.95h7.106v.95h-3.028Z" transform="translate(-1447.11 -162.238)"/>
    <path id="Path_37" data-name="Path 37" d="M1466.926,166.189h-5.311v4h-1.039v-7.953h1.026v3.015h5.312v-3.015h1.065v7.953h-1.052Z" transform="translate(-1450.592 -162.238)"/>
    <path id="Path_38" data-name="Path 38" d="M1475.65,162.238h4.657v.95h-3.63v2.065h2.4v.936h-2.4v3.053h3.938v.949h-4.964Z" transform="translate(-1454.49 -162.238)"/>
  </g>
  <path id="Path_39" data-name="Path 39" d="M1507.818,229.544c-.34-.021-6.146-.5-18.022,2.663a91.906,91.906,0,0,0-28.3,13.153c1.43-3.109,2.384-5.274,2.553-5.658.109-.13.219-.259.313-.383,1.492-1.934,3.588-5.859,2.863-8.161a2.365,2.365,0,0,0-1.623-1.6c-3.372-1.039-7.443,2.7-9.9,6.215a17.64,17.64,0,0,0-1.792,3.364c-1.083.75-6.4,4.451-12.185,8.848,1.311-2.865,2.172-4.827,2.317-5.156.141-.165.272-.323.384-.468,1.492-1.934,3.589-5.86,2.863-8.161a2.359,2.359,0,0,0-1.622-1.6c-3.869-1.208-8.546,4.436-9.887,6.191a15.106,15.106,0,0,0-2.23,4.452c-4.966,4.655-13.641,11.7-16.206,11.139a3.167,3.167,0,0,1-2.514-2.062,4.824,4.824,0,0,1-.269-1.181c.974-.293,3.507-1.4,6.944-5.525,4.539-5.441,2.468-8.094,2.378-8.2l-.162-.142c-1.34-.848-3.965-.15-7.324,4.34a16.063,16.063,0,0,0-3.221,8.961c-.966,1.134-4.236,4.565-11.56,8.846-9.128,5.335-25.455,7.63-25.572,7.653a.681.681,0,0,0,.127,1.349.69.69,0,0,0,.128-.012c.119-.023,16.667-2.36,26-7.814a51.493,51.493,0,0,0,11.114-8.257c.044.159.093.314.15.464a4.544,4.544,0,0,0,3.5,2.916c3.446.733,12.376-6.911,16.057-10.232a4.6,4.6,0,0,0,.13,1.46,2.41,2.41,0,0,0,1.449,1.682,1.894,1.894,0,0,0,.7.122c1.617,0,4-1.588,5.985-3.3-.541,1.194-1.214,2.667-1.985,4.325a103.225,103.225,0,0,0-12.08,10.561c-4.973,5.535-8.662,16.816-6.265,19.161a1.517,1.517,0,0,0,1.086.45,4.218,4.218,0,0,0,2.677-1.472c4.2-4,11.372-18.573,15.676-27.817,5.112-3.961,10.232-7.619,12.755-9.395a5.672,5.672,0,0,0-.038,2.646,2.47,2.47,0,0,0,1.408,1.666,1.774,1.774,0,0,0,.72.138c1.031,0,2.483-.675,4.333-2.016.573-.416,1.153-.88,1.714-1.36-.575,1.266-1.3,2.84-2.126,4.616a100.09,100.09,0,0,0-11.978,10.317c-5.441,5.481-8.679,16.733-6.362,19.114a1.589,1.589,0,0,0,1.168.509,4.186,4.186,0,0,0,2.669-1.458c4.153-3.956,11.255-18.311,15.6-27.6,25.168-18.235,47.1-16.953,47.38-16.934a.681.681,0,0,0,.087-1.358Zm-90.338,12.882c2.322-3.1,4.16-4.114,5.084-4.114a.915.915,0,0,1,.315.05c.22.454.855,2.458-2.415,6.379-2.834,3.4-4.942,4.569-5.909,4.96A15.422,15.422,0,0,1,1417.48,242.426Zm6.4,35.06c-1.023.975-1.693,1.218-1.883,1.034-1.382-1.352,1.215-11.59,6.325-17.275a88.3,88.3,0,0,1,9.777-8.713C1433.79,261.633,1427.539,274,1423.882,277.486Zm11.314-30.129a1.036,1.036,0,0,1-.639-.778c-.452-1.638.864-5.085,2.3-6.958,2.149-2.808,5.323-5.825,7.691-5.825a2.4,2.4,0,0,1,.721.106,1,1,0,0,1,.729.709c.468,1.483-.989,4.774-2.643,6.917C1440.923,244.676,1436.276,247.8,1435.2,247.357Zm8.626,27.088c-.912.869-1.672,1.256-1.934.985-1.328-1.365.754-11.562,6.352-17.2a99.274,99.274,0,0,1,9.779-8.648C1453.688,258.695,1447.458,270.982,1443.822,274.445Zm11.334-30.119a1.113,1.113,0,0,1-.643-.787c-.483-1.721,1.023-5.162,2.3-6.984,2.3-3.284,5.906-6.463,8.395-5.7a1,1,0,0,1,.729.71c.468,1.483-.989,4.775-2.642,6.917C1461.115,241.31,1456.235,244.794,1455.157,244.326Z" transform="translate(-1375 -179.945)"/>
</svg>
