<svg xmlns="http://www.w3.org/2000/svg" width="34" height="20.004" viewBox="0 0 34 20.004"><path d="M20.835,20.4a18.337,18.337,0,0,1,2.8.65A19.2,19.2,0,0,1,28.17,23.1a.7.7,0,0,0,.348.1c1.671.007,3.341,0,5.011.006.135,0,.268.014.4.022,0,.033,0,.046,0,.054-.078.119-.157.237-.235.356A10.146,10.146,0,0,0,32.358,26.4a.317.317,0,0,0,.036.3,8.425,8.425,0,0,1-2.406,12.092,8.442,8.442,0,0,1-4.534,1.292,7.965,7.965,0,0,1-2.034-.259,8.542,8.542,0,0,1-4.176-2.447c-.152-.16-.295-.328-.456-.509-.608.9-1.207,1.786-1.821,2.7l-1.791-2.657a.456.456,0,0,0-.06.031.276.276,0,0,0-.036.037A8.454,8.454,0,0,1,9.8,39.944a8.3,8.3,0,0,1-3.514-.2,8.388,8.388,0,0,1-4.143-2.564,8.29,8.29,0,0,1-2.033-4.3,8.114,8.114,0,0,1,.153-3.343,8.472,8.472,0,0,1,1.325-2.858.328.328,0,0,0,.038-.246,9.415,9.415,0,0,0-1.194-2.55c-.129-.2-.284-.391-.426-.586v-.068a.728.728,0,0,0,.085.009q2.564,0,5.128,0a.436.436,0,0,0,.221-.071A18.475,18.475,0,0,1,9.269,21.33a20.905,20.905,0,0,1,2.969-.8,23.947,23.947,0,0,1,2.953-.385A25.232,25.232,0,0,1,20.835,20.4ZM18.692,31.606A6.786,6.786,0,1,0,25.333,24.9,6.771,6.771,0,0,0,18.692,31.606ZM8.513,24.869a6.73,6.73,0,1,0,6.793,6.758A6.761,6.761,0,0,0,8.513,24.869Zm.337-1.758a8.6,8.6,0,0,1,5.406,2.221A8.518,8.518,0,0,1,17,30.457a8.6,8.6,0,0,1,8.024-7.308,19.417,19.417,0,0,0-7.56-1.564A21.066,21.066,0,0,0,8.849,23.111Z" transform="translate(0 -20.082)" fill="#f3d2d5"/><path d="M65.809,41.31a4.191,4.191,0,1,1-4.2,4.187A4.177,4.177,0,0,1,65.809,41.31ZM68.541,45.5a2.74,2.74,0,0,0-5.479-.011,2.74,2.74,0,1,0,5.479.011Z" transform="translate(-40.32 -34.06)" fill="#f3d2d5"/><path d="M16.4,41.31a4.191,4.191,0,1,1-4.205,4.182A4.175,4.175,0,0,1,16.4,41.31Zm2.729,4.178a2.741,2.741,0,0,0-5.482.009,2.741,2.741,0,1,0,5.482-.009Z" transform="translate(-7.997 -34.06)" fill="#f3d2d5"/><path d="M71.173,49.443a1.389,1.389,0,1,1-1.392,1.4A1.39,1.39,0,0,1,71.173,49.443Z" transform="translate(-45.704 -39.393)" fill="#f3d2d5"/><path d="M21.722,49.407a1.4,1.4,0,1,1,0,2.8,1.4,1.4,0,1,1,0-2.8Z" transform="translate(-13.309 -39.37)" fill="#f3d2d5"/></svg>