<svg xmlns="http://www.w3.org/2000/svg" width="14.996" height="28" viewBox="0 0 14.996 28"><g transform="translate(-117.272 28) rotate(-90)"><path d="M26.972,117.463l-12.96,13.3-12.96-13.3a.6.6,0,0,0-.861.015.636.636,0,0,0,0,.868l13.391,13.739a.6.6,0,0,0,.861,0l13.391-13.739a.636.636,0,0,0,.015-.883.6.6,0,0,0-.861-.015l-.015.015Z" transform="translate(-0.02)" fill="#fff"/><path d="M13.992,132.269a.6.6,0,0,1-.431-.182L.17,118.348a.636.636,0,0,1,.015-.883.6.6,0,0,1,.846,0l12.961,13.3,12.96-13.3a.6.6,0,0,1,.861-.015.636.636,0,0,1,.015.883l-.015.015L14.422,132.085A.6.6,0,0,1,13.992,132.269Z" transform="translate(0 -0.001)" fill="#fff"/></g></svg>