<svg xmlns="http://www.w3.org/2000/svg" width="14.996" height="28" viewBox="0 0 14.996 28"><g transform="translate(0 28) rotate(-90)"><path d="M26.951,14.8l-12.96-13.3L1.032,14.8a.6.6,0,0,1-.861-.015.636.636,0,0,1,0-.868L13.562.183a.6.6,0,0,1,.861,0L27.813,13.921a.636.636,0,0,1,.015.883.6.6,0,0,1-.861.015l-.015-.015Z" transform="translate(0.001 0.001)" fill="#fff"/><path d="M13.993,0a.6.6,0,0,0-.431.182L.171,13.921a.636.636,0,0,0,.015.883.6.6,0,0,0,.846,0l12.961-13.3,12.96,13.3a.6.6,0,0,0,.861.015.636.636,0,0,0,.015-.883l-.015-.015L14.422.184A.6.6,0,0,0,13.993,0Z" transform="translate(0 0)" fill="#fff"/></g></svg>